<svg xmlns="http://www.w3.org/2000/svg" xmlns:xlink="http://www.w3.org/1999/xlink" width="428" height="428" viewBox="0 0 428 428">
  <defs>
    <linearGradient id="linear-gradient" x1="0.5" x2="0.5" y2="1" gradientUnits="objectBoundingBox">
      <stop offset="0" stop-color="#213f7e"/>
      <stop offset="1" stop-color="#4195d1"/>
    </linearGradient>
  </defs>
  <g id="Group_255" data-name="Group 255" transform="translate(-434 -480)">
    <circle id="Ellipse_1356" data-name="Ellipse 1356" cx="214" cy="214" r="214" transform="translate(434 480)" fill="url(#linear-gradient)"/>
    <g id="undraw_Scrum_board_re_wk7v" transform="translate(500 590.003)">
      <path id="Path_425" data-name="Path 425" d="M285.9,181.385H267.021a6.85,6.85,0,0,0-6.844,6.844v20.463c-.241-.014-.483-.036-.72-.065a24.133,24.133,0,1,1,26.33-27.962C285.827,180.9,285.863,181.143,285.9,181.385Z" transform="translate(-220.312 -160.495)" fill="#f2f2f2"/>
      <path id="Path_426" data-name="Path 426" d="M547.092,216.495H305.4a7.572,7.572,0,0,0-7.564,7.564V351.568a7.572,7.572,0,0,0,7.564,7.564h241.69a7.572,7.572,0,0,0,7.564-7.564V224.059A7.572,7.572,0,0,0,547.092,216.495Zm6.844,135.073a6.85,6.85,0,0,1-6.844,6.844H305.4a6.85,6.85,0,0,1-6.844-6.844V224.059a6.85,6.85,0,0,1,6.844-6.844h241.69a6.85,6.85,0,0,1,6.844,6.844Z" transform="translate(-258.693 -196.326)" fill="#3f3d56"/>
      <path id="Path_427" data-name="Path 427" d="M569.115,272.585H351.2a.36.36,0,1,1,0-.72H569.115a.36.36,0,1,1,0,.72Z" transform="translate(-292.603 -231.752)" fill="#3f3d56"/>
      <path id="Path_428" data-name="Path 428" d="M522.2,357.719a.36.36,0,0,1-.36-.36v-118.5a.36.36,0,1,1,.72,0v118.5A.36.36,0,0,1,522.2,357.719Z" transform="translate(-402.01 -210.402)" fill="#3f3d56"/>
      <path id="Path_429" data-name="Path 429" d="M673.2,357.719a.36.36,0,0,1-.36-.36v-118.5a.36.36,0,1,1,.72,0v118.5A.36.36,0,0,1,673.2,357.719Z" transform="translate(-498.621 -210.402)" fill="#3f3d56"/>
      <path id="Path_430" data-name="Path 430" d="M824.2,357.719a.36.36,0,0,1-.36-.36v-118.5a.36.36,0,1,1,.72,0v118.5A.36.36,0,0,1,824.2,357.719Z" transform="translate(-595.231 -210.402)" fill="#3f3d56"/>
      <path id="Path_431" data-name="Path 431" d="M399.5,343.736H386.335a1.623,1.623,0,0,1-1.621-1.621V326.584a1.623,1.623,0,0,1,1.621-1.621H399.5a1.623,1.623,0,0,1,1.621,1.621v15.531A1.623,1.623,0,0,1,399.5,343.736Z" transform="translate(-314.277 -265.724)" fill="#6c63ff"/>
      <path id="Path_432" data-name="Path 432" d="M451.5,466.736H438.335a1.623,1.623,0,0,1-1.621-1.621V449.584a1.623,1.623,0,0,1,1.621-1.621H451.5a1.623,1.623,0,0,1,1.621,1.621v15.531A1.623,1.623,0,0,1,451.5,466.736Z" transform="translate(-347.547 -344.421)" fill="#6c63ff"/>
      <path id="Path_433" data-name="Path 433" d="M569.5,369.736H556.335a1.623,1.623,0,0,1-1.621-1.621V352.584a1.623,1.623,0,0,1,1.621-1.621H569.5a1.623,1.623,0,0,1,1.621,1.621v15.531A1.623,1.623,0,0,1,569.5,369.736Z" transform="translate(-423.044 -282.359)" fill="#6c63ff"/>
      <path id="Path_434" data-name="Path 434" d="M722.5,322.736H709.335a1.623,1.623,0,0,1-1.621-1.621V305.584a1.623,1.623,0,0,1,1.621-1.621H722.5a1.623,1.623,0,0,1,1.621,1.621v15.531a1.623,1.623,0,0,1-1.621,1.621Z" transform="translate(-520.935 -252.289)" fill="#6c63ff"/>
      <path id="Path_435" data-name="Path 435" d="M863.5,322.736H850.335a1.623,1.623,0,0,1-1.621-1.621V305.584a1.623,1.623,0,0,1,1.621-1.621H863.5a1.623,1.623,0,0,1,1.621,1.621v15.531A1.623,1.623,0,0,1,863.5,322.736Z" transform="translate(-611.147 -252.289)" fill="#6c63ff"/>
      <path id="Path_436" data-name="Path 436" d="M928.5,334.736H915.335a1.623,1.623,0,0,1-1.621-1.621V317.584a1.623,1.623,0,0,1,1.621-1.621H928.5a1.623,1.623,0,0,1,1.621,1.621v15.531A1.623,1.623,0,0,1,928.5,334.736Z" transform="translate(-652.735 -259.966)" fill="#e6e6e6"/>
      <path id="Path_437" data-name="Path 437" d="M899.5,411.736H886.335a1.623,1.623,0,0,1-1.621-1.621V394.584a1.623,1.623,0,0,1,1.621-1.621H899.5a1.623,1.623,0,0,1,1.621,1.621v15.531A1.623,1.623,0,0,1,899.5,411.736Z" transform="translate(-634.18 -309.231)" fill="#e6e6e6"/>
      <path id="Path_438" data-name="Path 438" d="M775.5,395.736H762.335a1.623,1.623,0,0,1-1.621-1.621V378.584a1.623,1.623,0,0,1,1.621-1.621H775.5a1.623,1.623,0,0,1,1.621,1.621v15.531a1.623,1.623,0,0,1-1.621,1.621Z" transform="translate(-554.844 -298.994)" fill="#ff6584"/>
      <path id="Path_439" data-name="Path 439" d="M704.5,411.736H691.335a1.623,1.623,0,0,1-1.621-1.621V394.584a1.623,1.623,0,0,1,1.621-1.621H704.5a1.623,1.623,0,0,1,1.621,1.621v15.531A1.623,1.623,0,0,1,704.5,411.736Z" transform="translate(-509.418 -309.231)" fill="#e6e6e6"/>
      <path id="Path_440" data-name="Path 440" d="M551.5,479.736H538.335a1.623,1.623,0,0,1-1.621-1.621V462.584a1.623,1.623,0,0,1,1.621-1.621H551.5a1.623,1.623,0,0,1,1.621,1.621v15.531A1.623,1.623,0,0,1,551.5,479.736Z" transform="translate(-411.528 -352.738)" fill="#e6e6e6"/>
      <path id="Path_441" data-name="Path 441" d="M366.5,422.736H353.335a1.623,1.623,0,0,1-1.621-1.621V405.584a1.623,1.623,0,0,1,1.621-1.621H366.5a1.623,1.623,0,0,1,1.621,1.621v15.531A1.623,1.623,0,0,1,366.5,422.736Z" transform="translate(-293.163 -316.269)" fill="#ff6584"/>
      <path id="Path_442" data-name="Path 442" d="M469.5,343.736H456.335a1.623,1.623,0,0,1-1.621-1.621V326.584a1.623,1.623,0,0,1,1.621-1.621H469.5a1.623,1.623,0,0,1,1.621,1.621v15.531A1.623,1.623,0,0,1,469.5,343.736Z" transform="translate(-359.063 -265.724)" fill="#e6e6e6"/>
      <path id="Path_443" data-name="Path 443" d="M426.81,252.377H406.279a1.441,1.441,0,1,1,0-2.882H426.81a1.441,1.441,0,0,1,0,2.882Z" transform="translate(-327.153 -217.44)" fill="#ccc"/>
      <path id="Path_444" data-name="Path 444" d="M587.81,252.377H567.279a1.441,1.441,0,1,1,0-2.882H587.81a1.441,1.441,0,0,1,0,2.882Z" transform="translate(-430.161 -217.44)" fill="#ccc"/>
      <path id="Path_445" data-name="Path 445" d="M738.81,252.377H718.279a1.441,1.441,0,1,1,0-2.882H738.81a1.441,1.441,0,1,1,0,2.882Z" transform="translate(-526.772 -217.44)" fill="#ccc"/>
      <path id="Path_446" data-name="Path 446" d="M879.81,252.377H859.279a1.441,1.441,0,1,1,0-2.882H879.81a1.441,1.441,0,0,1,0,2.882Z" transform="translate(-616.985 -217.44)" fill="#ccc"/>
      <path id="Path_447" data-name="Path 447" d="M316.2,524.776a3.622,3.622,0,0,1-3.134-4.586l-9.233-8.595,4.882-1.238,9.079,7.364a3.642,3.642,0,0,1-1.594,7.055Z" transform="translate(-262.532 -384.341)" fill="#ffb8b8"/>
      <path id="Path_448" data-name="Path 448" d="M184.4,536h4.416l2.1-17.033H184.4Z" transform="translate(-117.981 -332.039)" fill="#ffb8b8"/>
      <path id="Path_449" data-name="Path 449" d="M0,0H13.879V5.362H5.362A5.362,5.362,0,0,1,0,0H0Z" transform="translate(79.353 208.06) rotate(179.997)" fill="#2f2e41"/>
      <path id="Path_450" data-name="Path 450" d="M100.345,528.164l4.268,1.136,6.412-15.919-6.3-1.676Z" transform="translate(-64.201 -327.394)" fill="#ffb8b8"/>
      <path id="Path_451" data-name="Path 451" d="M0,0H13.879V5.362H5.362A5.362,5.362,0,0,1,0,0H0Z" transform="matrix(-0.966, -0.257, 0.257, -0.966, 47.586, 208.06)" fill="#2f2e41"/>
      <path id="Path_452" data-name="Path 452" d="M324,578.425h-6.738a1.7,1.7,0,0,1-1.7-1.546L311.47,534.4a1.35,1.35,0,0,0-2.637-.257l-11.877,39.693a1.708,1.708,0,0,1-2.053,1.169l-6.268-1.567a1.71,1.71,0,0,1-1.242-2.084c.1-.4,10.233-39.992,10.322-40.4,2.3-16.918,5.042-21.451,6.517-23.886.122-.2.234-.387.335-.562.126-.219.9-2.393,1.4-3.805a1.725,1.725,0,0,1,.877-1.073c6.2-3.17,13.452-.976,15.528-.228a1.687,1.687,0,0,1,.842.654c6.226,9.391,3.171,63.931,2.495,74.769a1.711,1.711,0,0,1-1.707,1.6Z" transform="translate(-251.976 -377.691)" fill="#2f2e41"/>
      <circle id="Ellipse_1354" data-name="Ellipse 1354" cx="8.847" cy="8.847" r="8.847" transform="translate(45.789 75.446)" fill="#ffb8b8"/>
      <path id="Path_453" data-name="Path 453" d="M319.449,457.359l-.064-.062c-.119-.115-11.906-11.663-10.381-22.341.652-4.567,4.348-7.485,10.686-8.44A9.774,9.774,0,0,1,330.5,433.4l6.267,21.426Z" transform="translate(-265.751 -330.631)" fill="#ccc"/>
      <path id="Path_454" data-name="Path 454" d="M304.112,477.96l-8.4-8.346a4.732,4.732,0,0,1-1.253-4.463l4.066-16.54a3.73,3.73,0,1,1,7.2,1.943l-4.281,14.55,6.922,7.433Z" transform="translate(-256.446 -343.018)" fill="#ccc"/>
      <path id="Path_455" data-name="Path 455" d="M417.127,446.838a3.622,3.622,0,0,1-5.361,1.451L400.553,454.1l.5-4.937,9.94-6.152a3.642,3.642,0,0,1,6.138,3.826Z" transform="translate(-324.411 -340.38)" fill="#ffb8b8"/>
      <path id="Path_456" data-name="Path 456" d="M373.428,444.107,362.5,448.83a4.614,4.614,0,0,1-4.494-.482l-13.9-9.959a3.73,3.73,0,1,1,4.479-5.963l11.918,9.38,9.473-3.665Z" transform="translate(-287.298 -333.974)" fill="#ccc"/>
      <path id="Path_457" data-name="Path 457" d="M307.112,377.882c1.091-1.367,3.13-1.441,4.63-2.343a5.41,5.41,0,0,0,2.143-6.025,7.559,7.559,0,0,0-4.639-4.74,12.8,12.8,0,0,0-6.777-.434,13.762,13.762,0,0,0-8.719,4.887c-2.05,2.728-2.571,6.723-.714,9.586.854,1.316,2.172,2.4,2.513,3.932.447,2.01-.962,3.948-2.472,5.347a56.157,56.157,0,0,0-5.2,4.727c-1.507,1.8-2.513,4.253-1.825,6.5a6.566,6.566,0,0,0,4.092,3.956,17.346,17.346,0,0,0,5.807.832c1.908.037,3.935-.009,5.542-1.038a6.445,6.445,0,0,0,2.707-5.233,12.391,12.391,0,0,0-1.529-5.869,22.57,22.57,0,0,1-1.541-3.307,4.635,4.635,0,0,1,.155-3.552,4.429,4.429,0,0,1,3.1-2.051c.065-.013.134-.024.207-.034a2.665,2.665,0,0,0,2.281-3.108A2.6,2.6,0,0,1,307.112,377.882Z" transform="translate(-251.009 -290.755)" fill="#2f2e41"/>
      <path id="Path_458" data-name="Path 458" d="M471.654,537.045h-4.416l-2.1-17.033h6.517Z" transform="translate(-297.597 -332.709)" fill="#a0616a"/>
      <path id="Path_459" data-name="Path 459" d="M452.687,563.8H461.2v5.362H447.325a5.362,5.362,0,0,1,5.362-5.362Z" transform="translate(-286.201 -360.723)" fill="#2f2e41"/>
      <path id="Path_460" data-name="Path 460" d="M549.084,525.892l-4.017,1.834-8.988-14.62,5.928-2.708Z" transform="translate(-342.986 -326.558)" fill="#a0616a"/>
      <path id="Path_461" data-name="Path 461" d="M5.362,0h8.516V5.362H0A5.362,5.362,0,0,1,5.362,0Z" transform="translate(193.809 203.561) rotate(-24.548)" fill="#2f2e41"/>
      <path id="Path_462" data-name="Path 462" d="M715.251,537.578a3.622,3.622,0,0,0,.289-5.546l5.191-11.778-6.595,1.118-3.918,11.014a3.642,3.642,0,0,0,5.034,5.194Z" transform="translate(-522.014 -390.673)" fill="#a0616a"/>
      <path id="Path_463" data-name="Path 463" d="M657.15,600.444h-4.219a1.627,1.627,0,0,1-1.617-1.5l-2.3-61.434a1.621,1.621,0,0,1,1.774-1.731l24.4,2.591a1.621,1.621,0,0,1,1.463,1.583l.511,27.1a1.258,1.258,0,0,0,.084.43l10.008,25.953a1.62,1.62,0,0,1-.952,2.1l-4.275,1.575a1.621,1.621,0,0,1-2-.78L667.73,572.425a1.613,1.613,0,0,1-.146-.412l-2.1-10.119a1.261,1.261,0,0,0-2.487.113l-4.237,37A1.621,1.621,0,0,1,657.15,600.444Z" transform="translate(-483.375 -400.599)" fill="#2f2e41"/>
      <circle id="Ellipse_1355" data-name="Ellipse 1355" cx="8.847" cy="8.847" r="8.847" transform="translate(167.029 71.179)" fill="#a0616a"/>
      <path id="Path_464" data-name="Path 464" d="M664.143,467.715a31.576,31.576,0,0,1-16.883-5.114l-.086-.059.009-.1,3.384-39.411a5.554,5.554,0,0,1,5.258-5.065c4.386-.2,10.277.053,13.43,2.4a15.378,15.378,0,0,1,6.3,14.664c-1.578,11.965.209,28.106.418,29.907l.015.13-.119.055A27.83,27.83,0,0,1,664.143,467.715Z" transform="translate(-482.2 -325.19)" fill="#6c63ff"/>
      <path id="Path_465" data-name="Path 465" d="M715.885,481.165a1.8,1.8,0,0,1-1.326-.584l-1.935-2.111a1.81,1.81,0,0,1-.4-1.727l4.413-14.935-6.714-14.1a3.173,3.173,0,0,1,5.658-2.868l9.111,14.783a4.3,4.3,0,0,1,.259,4.034L717.529,480.1a1.8,1.8,0,0,1-1.357,1.037A1.819,1.819,0,0,1,715.885,481.165Z" transform="translate(-522.151 -341.354)" fill="#6c63ff"/>
      <path id="Path_466" data-name="Path 466" d="M551.258,457.763a3.622,3.622,0,0,0,5.4-1.289l12.765,1.655-2.934-6.011-11.672-.651a3.642,3.642,0,0,0-3.562,6.295Z" transform="translate(-419.881 -346.482)" fill="#a0616a"/>
      <path id="Path_467" data-name="Path 467" d="M592.095,439.189a4.843,4.843,0,0,1-.664-.046l-20.081-2.785a2,2,0,0,1-1.531-1.121,2.032,2.032,0,0,1-.114-.3h0a2,2,0,0,1,.207-1.6l1.662-2.755a2.011,2.011,0,0,1,1.713-.967h0l17.5.02,13.073-11.712a3.542,3.542,0,0,1,4.855,5.156l-13.044,14.508a4.814,4.814,0,0,1-3.581,1.6Z" transform="translate(-432.583 -324.625)" fill="#6c63ff"/>
      <path id="Path_468" data-name="Path 468" d="M657.878,368.556c.808-1.871,1.493-4.363-.058-5.686-.9-.767-2.2-.769-3.373-.864-3.32-.269-6.738-1.8-8.36-4.705s-.716-7.234,2.345-8.547c2.064-.885,4.429-.282,6.59.331l6.486,1.839c1.927.546,3.95,1.149,5.338,2.594,2.213,2.3,2.047,6.2.29,8.867s-4.4,5.45-7.434,6.463Z" transform="translate(-480.997 -280.661)" fill="#2f2e41"/>
      <path id="Path_469" data-name="Path 469" d="M455.52,737.981H189.591a.429.429,0,0,1,0-.858H455.52a.429.429,0,0,1,0,.858Z" transform="translate(-189.162 -529.427)" fill="#3f3d56"/>
    </g>
  </g>
</svg>
