<svg id="uploading-file" xmlns="http://www.w3.org/2000/svg" width="84.324" height="92.697" viewBox="0 0 84.324 92.697">
  <g id="Group_4" data-name="Group 4">
    <path id="Path_4" data-name="Path 4" d="M68.351,32.653a3.618,3.618,0,0,0,5.083.179L96.22,11.9V66.383a3.588,3.588,0,1,0,7.176,0V11.722l22.785,21.171a3.6,3.6,0,1,0,4.9-5.263L102.38,1.017a3.657,3.657,0,0,0-1.316-.777A4.656,4.656,0,0,0,99.808,0a3.629,3.629,0,0,0-2.99,1.615L68.531,27.57A3.6,3.6,0,0,0,68.351,32.653Z" transform="translate(-57.347)" fill="#213f7e"/>
    <path id="Path_5" data-name="Path 5" d="M23.421,252.167a3.6,3.6,0,0,0-3.588,3.588v32.294a3.6,3.6,0,0,0,3.588,3.588h77.147a3.6,3.6,0,0,0,3.588-3.588V255.755a3.588,3.588,0,0,0-7.176,0v28.706H27.01V255.755A3.6,3.6,0,0,0,23.421,252.167Z" transform="translate(-19.833 -198.941)" fill="#213f7e"/>
  </g>
</svg>
